inDegrees=no
num_controls=7
num_derivatives=13
num_iterations=48
num_multipliers=7
num_parameters=0
num_slacks=7
num_states=26
objective=0.430986
objective_accelerations=0.053726
objective_balance=0.006948
objective_effort=0.033220
objective_height=0.335986
objective_ligament=0.001106
solver_duration=698.641393
status=Solve_Succeeded
success=true
DataType=double
version=3
OpenSimVersion=4.5
endheader
time	/jointset/ground_pelvis/pelvis_tilt/value	/jointset/ground_pelvis/pelvis_tx/value	/jointset/ground_pelvis/pelvis_ty/value	/jointset/hip_l/hip_flexion_l/value	/jointset/hip_l/hip_adduction_l/value	/jointset/hip_l/hip_rotation_l/value	/jointset/back/lumbar_extension/value	/jointset/patellofemoral_l/patellar_flexion_l/value	/jointset/knee_l/knee_flexion_l/value	/jointset/knee_l/knee_adduction_l/value	/jointset/knee_l/knee_rotation_l/value	/jointset/ankle_l/ankle_angle_l/value	/jointset/subtalar_l/subtalar_angle_l/value	/jointset/ground_pelvis/pelvis_tilt/speed	/jointset/ground_pelvis/pelvis_tx/speed	/jointset/ground_pelvis/pelvis_ty/speed	/jointset/hip_l/hip_flexion_l/speed	/jointset/hip_l/hip_adduction_l/speed	/jointset/hip_l/hip_rotation_l/speed	/jointset/back/lumbar_extension/speed	/jointset/patellofemoral_l/patellar_flexion_l/speed	/jointset/knee_l/knee_flexion_l/speed	/jointset/knee_l/knee_adduction_l/speed	/jointset/knee_l/knee_rotation_l/speed	/jointset/ankle_l/ankle_angle_l/speed	/jointset/subtalar_l/subtalar_angle_l/speed	/forceset/tau_hip_flexion_l	/forceset/tau_hip_adduction_l	/forceset/tau_hip_rotation_l	/forceset/tau_knee_flexion_l	/forceset/tau_ankle_angle_l	/forceset/tau_subtalar_angle_l	/forceset/tau_lumbar_extension	lambda_cid13_p0	lambda_cid13_p1	lambda_cid13_p2	lambda_cid13_p3	lambda_cid13_p4	lambda_cid13_p5	lambda_cid14_p0	/jointset/ground_pelvis/pelvis_tilt/accel	/jointset/ground_pelvis/pelvis_tx/accel	/jointset/ground_pelvis/pelvis_ty/accel	/jointset/hip_l/hip_flexion_l/accel	/jointset/hip_l/hip_adduction_l/accel	/jointset/hip_l/hip_rotation_l/accel	/jointset/back/lumbar_extension/accel	/jointset/patellofemoral_l/patellar_flexion_l/accel	/jointset/knee_l/knee_flexion_l/accel	/jointset/knee_l/knee_adduction_l/accel	/jointset/knee_l/knee_rotation_l/accel	/jointset/ankle_l/ankle_angle_l/accel	/jointset/subtalar_l/subtalar_angle_l/accel	gamma_cid13_p0	gamma_cid13_p1	gamma_cid13_p2	gamma_cid13_p3	gamma_cid13_p4	gamma_cid13_p5	gamma_cid14_p0
1	-0.4621665012877092	-0.05988794366313625	0.5683704892902235	1.857668583133779	-0.2651440742760498	0.2463291659176584	-0.4362811607758044	1.486303797950622	1.486303797950658	-0.172695408270415	0.1745026855164422	0.3106581996132176	0.05810159861306615	-0.00153830070607001	0.0002941195504573483	-0.003581022757742505	0.01066657830598883	0.00128966863120835	0.002125535598417004	0.0004371269468307007	0.01114556382971478	0.01114556382971511	0.002187290376253156	0.0004707640815944315	0.002581402755817206	0.002394146770917501	-0.3414000802997581	0.03791475642084847	-0.009132961022051357	-0.3851769597722147	0.07524296915665288	-0.017293917407534	0.3027394159595949	-24.25356196566766	16.94233372462395	-9.025964579180116	14.28013858388848	-738.111034503889	-23.96152831910779	-0.03818764025152489	1.080018043016849	0.006496427827887309	1.986112702932607	-6.214288308600704	-0.7169594767390209	-2.145124002183026	-0.1016031049289386	-5.834393223409454	-5.834393223409506	-0.1819566469121419	0.01968715646065492	-0.9964487679045755	-1.197233083546593	3.944369117533937e-09	3.867569872998149e-09	-1.186780417608923e-08	-9.174481434596781e-09	4.983396309725663e-09	-1.126009836124869e-08	2.311747611682661e-09
1.01	-0.462128595963863	-0.05988476060586442	0.5684338001534301	1.857465637339689	-0.2651661033703038	0.2462409294625576	-0.4362810547281003	1.486123900361247	1.486123900361221	-0.1726791216700545	0.1745072826508054	0.3106343172881117	0.05806700584604163	0.009092254225978933	0.0003370931188668984	0.01623232570811569	-0.05120206217203349	-0.005681063906853651	-0.01976735768835183	-0.0003852680282691482	-0.04711550580653301	-0.04711550580653526	0.001084522298223904	0.0004309977636900095	-0.007373929383184871	-0.009296629904937917	-0.3413088930929918	0.03804876532436576	-0.009156096507885155	-0.3848687882136393	0.07492121680858004	-0.01727818114527382	0.3026519127785168	-24.34023065860142	16.94718599927121	-9.022753364968448	14.40184877765314	-737.8158240341248	-23.91429840217968	-0.03820822743233625	1.050507926871942	0.002388097517756833	1.977313983999731	-6.165100434105925	-0.6849741449553081	-2.210556873238192	-0.06796028710532445	-5.820525837085318	-5.820525837085692	-0.07226589076984705	-0.01846971579968009	-0.9974827471973432	-1.152595955758634	2.500678372492507e-09	3.624767564607828e-09	4.822628732033204e-08	3.70515172686266e-10	-7.280474258126553e-09	4.237785145980374e-08	-7.955414387745063e-09
1.02	-0.4619851983489907	-0.05988130975767463	0.5686949181144144	1.856645615437436	-0.2652574085904635	0.2459339270983146	-0.4362882531486661	1.48536167967484	1.485361679674776	-0.1726734285510059	0.1745109498839913	0.3105104001795572	0.05791598611302818	0.01956015750095723	0.0003476777340462834	0.03598039679754737	-0.1127486433181596	-0.0125655565495349	-0.04162764622770264	-0.001023766735528679	-0.1053190555768956	-0.1053190555769003	6.859411933402083e-05	0.0002847838504398283	-0.01742555393416102	-0.02089124642694071	-0.3412177058864067	0.03818277422785289	-0.009179231993531512	-0.3845606166550529	0.07459946446053378	-0.01726244488304883	0.3025644095972455	-24.43231318082487	16.95240895067629	-9.018942019113615	14.56306104054656	-737.6121784689745	-23.81172566670067	-0.0382221918213349	1.04748771160245	1.863718204613848e-05	1.973057227647346	-6.149876442221523	-0.6997114976629506	-2.13860305269947	-0.06482385136010964	-5.822889250232381	-5.822889250232405	-0.1645886670843136	-0.001602362608351916	-1.015707250299016	-1.178001052776068	1.074546269974623e-09	4.724037077007944e-09	1.070510533791879e-07	1.0007811029112e-08	-1.917621308115883e-08	9.725171270871405e-08	-1.802137283760784e-08
1.03	-0.4617380908194791	-0.05987784683519818	0.5691531347841934	1.855211941800589	-0.2654170267350488	0.2454085753502276	-0.4363004645616315	1.484017736337511	1.484017736337484	-0.172677436132845	0.1745125529764272	0.3102854578717691	0.0576496590802191	0.02981589227843167	0.000346085827320123	0.05564628823781068	-0.1739092292814219	-0.01933347248741232	-0.06343141360980845	-0.001339558233091924	-0.1634579859060814	-0.1634579859060795	-0.0008498670037470782	1.154194329956528e-05	-0.0275822129495326	-0.0323423144426857	-0.3410867105413372	0.0383096438976598	-0.009271690396992733	-0.3841068640031501	0.07444785868575901	-0.01714799222018405	0.302535600684216	-24.45125093514569	16.88693352570408	-8.986704302509642	14.56038482624623	-737.3061233737402	-23.78868268917464	-0.03826306069112478	1.007799653885783	-6.725650445439435e-05	1.96085147854494	-6.087620539672447	-0.6616665507526468	-2.199590184410949	-0.003113152829797275	-5.807645348711273	-5.807645348710279	-0.05245029581176859	-0.04386858320006125	-1.018536095593294	-1.123904013463315	-3.514066627215919e-10	5.837001199824297e-09	1.658628671376604e-07	1.964604871461062e-08	-3.10681954578154e-08	1.52138185298725e-07	-2.808527819002607e-08
1.04	-0.4613897892835828	-0.05987436366217012	0.5698075096436422	1.853168968130854	-0.2656435910207915	0.2446655206076182	-0.4363134651602334	1.482092753612001	1.482092753612001	-0.172690023418118	0.1745106869541127	0.3099583708001402	0.05726977249975498	0.03979895877855114	0.0003517278443688953	0.07521203473130122	-0.234608649896426	-0.02595478478139071	-0.08516824512971223	-0.001181603885642406	-0.2215269332132534	-0.2215269332132449	-0.001647346562496527	-0.0004090391011684129	-0.0378545067023895	-0.04360315595801675	-0.3409557151962397	0.03843651356745979	-0.009364148800294328	-0.3836531113512504	0.07429625291097769	-0.01703353955733165	0.3025067917712141	-24.47580273028155	16.82197493462383	-8.954016649005725	14.59848193104917	-737.0924296522561	-23.71128777333227	-0.03829751742082307	0.9929540561311722	0.001465421937231474	1.953028238292836	-6.057643372569959	-0.6703907688832329	-2.125215880259128	0.02992531764391879	-5.808892645829598	-5.8088926458296	-0.1403923542180297	-0.03107019007373484	-1.038834197795697	-1.139955752693285	-1.588543073145425e-09	5.899821490356915e-09	2.235152961626495e-07	2.748148274214049e-08	-4.214903587935478e-08	2.067039430620741e-07	-3.836102779196581e-08
1.05	-0.460942821017956	-0.05987070152883372	0.5706569775746803	1.850521251453136	-0.2659355733597235	0.2437055993544978	-0.4363224780862228	1.479587639011143	1.479587639011148	-0.1727100378601181	0.1745039162671445	0.3095280436594057	0.05677835441842399	0.04956615740396023	0.0003902876292737539	0.09465831030175199	-0.2948604392668711	-0.03241088036431338	-0.1067936822623301	-0.0005346257498398875	-0.2794641890201635	-0.2794641890201535	-0.002335521227715053	-0.0009653808716381411	-0.04822450908151546	-0.05463612712807366	-0.3407304898736414	0.03859802579009709	-0.009521726659385072	-0.3829320759940764	0.07426669717503656	-0.01684729384232885	0.3024626613534169	-24.43414960238364	16.70167518808562	-8.898148676382474	14.47398734194696	-736.6198652589264	-23.66543757183736	-0.03835318762052015	0.9643249712913429	0.006496708980378487	1.936930287767091	-5.997808384770935	-0.6286402177952097	-2.177894455977968	0.09503741177674643	-5.781362524742342	-5.781362524742109	-0.03004828169024796	-0.07102573563371407	-1.03811353493381	-1.078353040972445	-2.819778967248247e-09	5.929824786130671e-09	2.811314944147173e-07	3.526057915535886e-08	-5.320452811479675e-08	2.612596784870901e-07	-4.864339752670309e-08
